<svg xmlns="http://www.w3.org/2000/svg" viewBox="0 0 175 56" width="175" height="56" role="img" aria-label="Ajuntament de Vilafosca (ejemplo)" xmlns:c2pa="http://c2pa.org/manifest"><metadata><c2pa:manifest>AAAWgmp1bWIAAAAeanVtZGMycGEAEQAQgAAAqgA4m3EDYzJwYQAAABZcanVtYgAAAEdqdW1kYzJtYQARABCAAACqADibcQN1cm46YzJwYTpkMmY0NWJmNy1iYTZkLTRmZGUtOTFhNi0xMjAyZmJmYzI0NGEAAAADl2p1bWIAAAApanVtZGMyYXMAEQAQgAAAqgA4m3EDYzJwYS5hc3NlcnRpb25zAAAAALxqdW1iAAAARGp1bWRjYm9yABEAEIAAAKoAOJtxE2MycGEuaW5ncmVkaWVudC52MwAAAAAYYzJzaI0QCUGDyQvetP5FbxTKhkoAAABwY2JvcqNpZGM6Zm9ybWF0bWltYWdlL3N2Zyt4bWxqaW5zdGFuY2VJRHgseG1wOmlpZDo0Mjk5NmVlNC1hM2YyLTRmMzAtOGM2My1iYzljMTgxZGY2ZTRscmVsYXRpb25zaGlwaHBhcmVudE9mAAAB4mp1bWIAAABBanVtZGNib3IAEQAQgAAAqgA4m3ETYzJwYS5hY3Rpb25zLnYyAAAAABhjMnNorT4CUDjU69/rW+dIDQ99TQAAAZljYm9yomdhY3Rpb25zgqJmYWN0aW9ua2MycGEub3BlbmVkanBhcmFtZXRlcnOha2luZ3JlZGllbnRzgaJjdXJseC1zZWxmI2p1bWJmPWMycGEuYXNzZXJ0aW9ucy9jMnBhLmluZ3JlZGllbnQudjNkaGFzaFggYs1TCFhX5outk93VIZTacgZg35RCcJZbihyfGlMY2gekZmFjdGlvbngdY29tLmFudGhyb3BpYy5jbGF1ZGUucHJvdmlkZWRqcGFyYW1ldGVyc6F4H2NvbS5hbnRocm9waWMub3JpZ2luLWNvbmZpZGVuY2VndW5rbm93bmtkZXNjcmlwdGlvbnhmQ2xhdWRlIHByb3ZpZGVkIHRoaXMgZmlsZSBhdCB0aGUgcmVxdWVzdCBvZiBhIHVzZXIgYW5kIG1heSBoYXZlIGNyZWF0ZWQgb3IgbW9kaWZpZWQgdGhlIGZpbGUgY29udGVudHMubXNvZnR3YXJlQWdlbnShZG5hbWVmQ2xhdWRlcmFsbEFjdGlvbnNJbmNsdWRlZPUAAADIanVtYgAAAEBqdW1kY2JvcgARABCAAACqADibcRNjMnBhLmhhc2guZGF0YQAAAAAYYzJzaBKZmfJeZOt1NtUQDdt2ickAAACAY2JvcqVjYWxnZnNoYTI1NmNwYWRNAAAAAAAAAAAAAAAAAGRoYXNoWCCh03h8UxYNdsNQKCW7redc6iDBSF4jXqkCZPVGcxk3GGRuYW1lbmp1bWJmIG1hbmlmZXN0amV4Y2x1c2lvbnOBomVzdGFydBjOZmxlbmd0aBkeBAAAAj5qdW1iAAAAJ2p1bWRjMmNsABEAEIAAAKoAOJtxA2MycGEuY2xhaW0udjIAAAACD2Nib3KlY2FsZ2ZzaGEyNTZpc2lnbmF0dXJleE1zZWxmI2p1bWJmPS9jMnBhL3VybjpjMnBhOmQyZjQ1YmY3LWJhNmQtNGZkZS05MWE2LTEyMDJmYmZjMjQ0YS9jMnBhLnNpZ25hdHVyZWppbnN0YW5jZUlEeCx4bXA6aWlkOmVkZDc1ZjVlLTBhZTEtNGU3Ny1hMDZkLTQxYmJkYTJiYjJkM3JjcmVhdGVkX2Fzc2VydGlvbnODomN1cmx4LXNlbGYjanVtYmY9YzJwYS5hc3NlcnRpb25zL2MycGEuaW5ncmVkaWVudC52M2RoYXNoWCBizVMIWFfmi62T3dUhlNpyBmDflEJwlluKHJ8aUxjaB6JjdXJseCpzZWxmI2p1bWJmPWMycGEuYXNzZXJ0aW9ucy9jMnBhLmFjdGlvbnMudjJkaGFzaFggtu01uSmYSEJq8inDjwePPX47OkhhVlRG7gZ1KldIPyaiY3VybHgpc2VsZiNqdW1iZj1jMnBhLmFzc2VydGlvbnMvYzJwYS5oYXNoLmRhdGFkaGFzaFggMd3kxU3CFOAn97HOoxYS4FXQ1QR6iF1n2fG1CppSTRV0Y2xhaW1fZ2VuZXJhdG9yX2luZm+jZG5hbWVvQW50aHJvcGljIEZpbGVzZ3ZlcnNpb25lMS4wLjBrc3BlY1ZlcnNpb25lMi40LjAAABA4anVtYgAAAChqdW1kYzJjcwARABCAAACqADibcQNjMnBhLnNpZ25hdHVyZQAAABAIY2JvctKEWQISogEmGCFZAgowggIGMIIBjaADAgECAhRA5aAK7sI50L64g/oGQgU9Z1UTADAKBggqhkjOPQQDAzBJMRcwFQYDVQQKEw5BbnRocm9waWMsIFBCQzEuMCwGA1UEAxMlQW50aHJvcGljIENvbnRlbnQgQ3JlZGVudGlhbHMgUm9vdCBDQTAeFw0yNjA4MDcxODQzNTZaFw0yODA4MDYxOTQzNTZaMEQxFzAVBgNVBAoTDkFudGhyb3BpYywgUEJDMSkwJwYDVQQDEyBBbnRocm9waWMgQ2xhdWRlIENvbnRlbnQgU2lnbmluZzBZMBMGByqGSM49AgEGCCqGSM49AwEHA0IABJh6CmvLUBgFFNU0vUKlOVtE6djd17L5SuwX0LemFisBM3dkd/3cyjxFA3Qo5S46fX0/ihY0VZ7mfb9KF703t5OjWDBWMA4GA1UdDwEB/wQEAwIHgDAVBgNVHSUEDjAMBgorBgEEAYPoXgIBMAwGA1UdEwEB/wQCMAAwHwYDVR0jBBgwFoAUzlHiBIFOZFsj+OPEz5o+nMHXXMIwCgYIKoZIzj0EAwMDZwAwZAIwMXMdFJ4BetLLVY7ORuE9noqbbAZOZn/aArXyTwFAZfKrPzxF2vPoJNf1+UCdg1XGAjBwX1zd9WGqYkqmL5SFqw1QySjr1zJfpJM9+1rdDwSPLMOPOjKuiXjoU/pUUeG9RwmhY3BhZFkNngAAAAAAAAAAAAAAAAAAAAAAAAAAAAAAAAAAAAAAAAAAAAAAAAAAAAAAAAAAAAAAAAAAAAAAAAAAAAAAAAAAAAAAAAAAAAAAAAAAAAAAAAAAAAAAAAAAAAAAAAAAAAAAAAAAAAAAAAAAAAAAAAAAAAAAAAAAAAAAAAAAAAAAAAAAAAAAAAAAAAAAAAAAAAAAAAAAAAAAAAAAAAAAAAAAAAAAAAAAAAAAAAAAAAAAAAAAAAAAAAAAAAAAAAAAAAAAAAAAAAAAAAAAAAAAAAAAAAAAAAAAAAAAAAAAAAAAAAAAAAAAAAAAAAAAAAAAAAAAAAAAAAAAAAAAAAAAAAAAAAAAAAAAAAAAAAAAAAAAAAAAAAAAAAAAAAAAAAAAAAAAAAAAAAAAAAAAAAAAAAAAAAAAAAAAAAAAAAAAAAAAAAAAAAAAAAAAAAAAAAAAAAAAAAAAAAAAAAAAAAAAAAAAAAAAAAAAAAAAAAAAAAAAAAAAAAAAAAAAAAAAAAAAAAAAAAAAAAAAAAAAAAAAAAAAAAAAAAAAAAAAAAAAAAAAAAAAAAAAAAAAAAAAAAAAAAAAAAAAAAAAAAAAAAAAAAAAAAAAAAAAAAAAAAAAAAAAAAAAAAAAAAAAAAAAAAAAAAAAAAAAAAAAAAAAAAAAAAAAAAAAAAAAAAAAAAAAAAAAAAAAAAAAAAAAAAAAAAAAAAAAAAAAAAAAAAAAAAAAAAAAAAAAAAAAAAAAAAAAAAAAAAAAAAAAAAAAAAAAAAAAAAAAAAAAAAAAAAAAAAAAAAAAAAAAAAAAAAAAAAAAAAAAAAAAAAAAAAAAAAAAAAAAAAAAAAAAAAAAAAAAAAAAAAAAAAAAAAAAAAAAAAAAAAAAAAAAAAAAAAAAAAAAAAAAAAAAAAAAAAAAAAAAAAAAAAAAAAAAAAAAAAAAAAAAAAAAAAAAAAAAAAAAAAAAAAAAAAAAAAAAAAAAAAAAAAAAAAAAAAAAAAAAAAAAAAAAAAAAAAAAAAAAAAAAAAAAAAAAAAAAAAAAAAAAAAAAAAAAAAAAAAAAAAAAAAAAAAAAAAAAAAAAAAAAAAAAAAAAAAAAAAAAAAAAAAAAAAAAAAAAAAAAAAAAAAAAAAAAAAAAAAAAAAAAAAAAAAAAAAAAAAAAAAAAAAAAAAAAAAAAAAAAAAAAAAAAAAAAAAAAAAAAAAAAAAAAAAAAAAAAAAAAAAAAAAAAAAAAAAAAAAAAAAAAAAAAAAAAAAAAAAAAAAAAAAAAAAAAAAAAAAAAAAAAAAAAAAAAAAAAAAAAAAAAAAAAAAAAAAAAAAAAAAAAAAAAAAAAAAAAAAAAAAAAAAAAAAAAAAAAAAAAAAAAAAAAAAAAAAAAAAAAAAAAAAAAAAAAAAAAAAAAAAAAAAAAAAAAAAAAAAAAAAAAAAAAAAAAAAAAAAAAAAAAAAAAAAAAAAAAAAAAAAAAAAAAAAAAAAAAAAAAAAAAAAAAAAAAAAAAAAAAAAAAAAAAAAAAAAAAAAAAAAAAAAAAAAAAAAAAAAAAAAAAAAAAAAAAAAAAAAAAAAAAAAAAAAAAAAAAAAAAAAAAAAAAAAAAAAAAAAAAAAAAAAAAAAAAAAAAAAAAAAAAAAAAAAAAAAAAAAAAAAAAAAAAAAAAAAAAAAAAAAAAAAAAAAAAAAAAAAAAAAAAAAAAAAAAAAAAAAAAAAAAAAAAAAAAAAAAAAAAAAAAAAAAAAAAAAAAAAAAAAAAAAAAAAAAAAAAAAAAAAAAAAAAAAAAAAAAAAAAAAAAAAAAAAAAAAAAAAAAAAAAAAAAAAAAAAAAAAAAAAAAAAAAAAAAAAAAAAAAAAAAAAAAAAAAAAAAAAAAAAAAAAAAAAAAAAAAAAAAAAAAAAAAAAAAAAAAAAAAAAAAAAAAAAAAAAAAAAAAAAAAAAAAAAAAAAAAAAAAAAAAAAAAAAAAAAAAAAAAAAAAAAAAAAAAAAAAAAAAAAAAAAAAAAAAAAAAAAAAAAAAAAAAAAAAAAAAAAAAAAAAAAAAAAAAAAAAAAAAAAAAAAAAAAAAAAAAAAAAAAAAAAAAAAAAAAAAAAAAAAAAAAAAAAAAAAAAAAAAAAAAAAAAAAAAAAAAAAAAAAAAAAAAAAAAAAAAAAAAAAAAAAAAAAAAAAAAAAAAAAAAAAAAAAAAAAAAAAAAAAAAAAAAAAAAAAAAAAAAAAAAAAAAAAAAAAAAAAAAAAAAAAAAAAAAAAAAAAAAAAAAAAAAAAAAAAAAAAAAAAAAAAAAAAAAAAAAAAAAAAAAAAAAAAAAAAAAAAAAAAAAAAAAAAAAAAAAAAAAAAAAAAAAAAAAAAAAAAAAAAAAAAAAAAAAAAAAAAAAAAAAAAAAAAAAAAAAAAAAAAAAAAAAAAAAAAAAAAAAAAAAAAAAAAAAAAAAAAAAAAAAAAAAAAAAAAAAAAAAAAAAAAAAAAAAAAAAAAAAAAAAAAAAAAAAAAAAAAAAAAAAAAAAAAAAAAAAAAAAAAAAAAAAAAAAAAAAAAAAAAAAAAAAAAAAAAAAAAAAAAAAAAAAAAAAAAAAAAAAAAAAAAAAAAAAAAAAAAAAAAAAAAAAAAAAAAAAAAAAAAAAAAAAAAAAAAAAAAAAAAAAAAAAAAAAAAAAAAAAAAAAAAAAAAAAAAAAAAAAAAAAAAAAAAAAAAAAAAAAAAAAAAAAAAAAAAAAAAAAAAAAAAAAAAAAAAAAAAAAAAAAAAAAAAAAAAAAAAAAAAAAAAAAAAAAAAAAAAAAAAAAAAAAAAAAAAAAAAAAAAAAAAAAAAAAAAAAAAAAAAAAAAAAAAAAAAAAAAAAAAAAAAAAAAAAAAAAAAAAAAAAAAAAAAAAAAAAAAAAAAAAAAAAAAAAAAAAAAAAAAAAAAAAAAAAAAAAAAAAAAAAAAAAAAAAAAAAAAAAAAAAAAAAAAAAAAAAAAAAAAAAAAAAAAAAAAAAAAAAAAAAAAAAAAAAAAAAAAAAAAAAAAAAAAAAAAAAAAAAAAAAAAAAAAAAAAAAAAAAAAAAAAAAAAAAAAAAAAAAAAAAAAAAAAAAAAAAAAAAAAAAAAAAAAAAAAAAAAAAAAAAAAAAAAAAAAAAAAAAAAAAAAAAAAAAAAAAAAAAAAAAAAAAAAAAAAAAAAAAAAAAAAAAAAAAAAAAAAAAAAAAAAAAAAAAAAAAAAAAAAAAAAAAAAAAAAAAAAAAAAAAAAAAAAAAAAAAAAAAAAAAAAAAAAAAAAAAAAAAAAAAAAAAAAAAAAAAAAAAAAAAAAAAAAAAAAAAAAAAAAAAAAAAAAAAAAAAAAAAAAAAAAAAAAAAAAAAAAAAAAAAAAAAAAAAAAAAAAAAAAAAAAAAAAAAAAAAAAAAAAAAAAAAAAAAAAAAAAAAAAAAAAAAAAAAAAAAAAAAAAAAAAAAAAAAAAAAAAAAAAAAAAAAAAAAAAAAAAAAAAAAAAAAAAAAAAAAAAAAAAAAAAAAAAAAAAAAAAAAAAAAAAAAAAAAAAAAAAAAAAAAAAAAAAAAAAAAAAAAAAAAAAAAAAAAAAAAAAAAAAAAAAAAAAAAAAAAAAAAAAAAAAAAAAAAAAAAAAAAAAAAAAAAAAAAAAAAAAAAAAAAAAAAAAAAAAAAAAAAAAAAAAAAAAAAAAAAAAAAAAAAAAAAAAAAAAAAAAAAAAAAAAAAAAAAAAAAAAAAAAAAAAAAAAAAAAAAAAAAAAAAAAAAAAAAAAAAAAAAAAAAAAAAAAAAAAAAAAAAAAAAAAAAAAAAAAAAAAAAAAAAAAAAAAAAAAAAAAAAAAAAAAAAAAAAAAAAAAAAAAAAAAAAAAAAAAAAAAAAAAAAAAAAAAAAAAAAAAAAAAAAAAAAAAAAAAAAAAAAAAAAAAAAAAAAAAAAAAAAAAAAAAAAAAAAAAAAAAAAAAAAAAAAAAAAAAAAAAAAAAAAAAAAAAAAAAAAAAAAAAAAAAAAAAAAAAAAAAAAAAAAAAAAAAAAAAAAAAAAAAAAAAAAAAAAAAAAAAAAAAAAAAAAAAAAAAAAAAAAAAAAAAAAAAAAAAAAAAAAAAAAAAAAAAAAAAAAAAAAAAAAAAAAAAAAAAAAAAAAAAAAAAAAAAAAAAAAAAAAAAAAAAAAAAAAAAAAAAAAAAAAAAAAAAAAAAAAAAAAAAAAAAAAAAAAAAAAAAAAAAAAAAAAAAAAAAAAAAAAAAAAAAAAAAAAAAAAAAAAAAAAAAAAAAAAAAAAAAAAAAAAAAAAAAAAAAAAAAAAAAAAAAAAAAAAAAAAAAAAAAAAAAAAAAAAAAAAAAAAAAAAAAAAAAAAAAAAAAAAAAAAAAAAAAAAAAAAAAAAAAAAAAAAAAAAAAAAAAAAAAAAAAAAAAAAAAAAAAAAAAAAAAAAAAAAAAAAAAAAAAAAAAAAAAAAAAAAAAAAAAAAAAAAAAAAAAAAAAAAAAAAAAAAAAAAAAAAAAAAAAAAAAAAAAAAAAAAAAAAAAAAAAAAAAAAAAAAAAAAAAAAAAAAAAAAAAAAAAAAAAAAAAAAAAAAAAAAAAAAAAAAAAAAAAAAAAAAAAAAAAAAAAAAAAAAAAAAAAAAAAAAAAAAAAAAAAAAAAAAAAAAAAAAAAAAAAAAAAAAAAAAAAAAAAAAAAAAAAAAAAAAAAAAAAAAAAAAAAAAAAAAAAAAAAAAAAAAAAAAAPZYQMZtXVRSckf9Yym7DqYubA9MBidj5Powhr8tzhYy02xG5Nic4RF5OCV7bUDFHO2+kNzpNjsAVYT4jt70eob2Bhk=</c2pa:manifest></metadata><title>Ajuntament de Vilafosca (ejemplo)</title><g fill="#161616"><path d="M6 6h34v20c0 11-8 18-17 22C14 44 6 37 6 26z" fill="none" stroke="#161616" stroke-width="3.2" stroke-linecap="round" stroke-linejoin="round"/><path d="M14 30l5-7 4 5 4-9 6 11z"/><path d="M58.3 22.0 56.0 14.1H54.4L52.1 22.0H53.6L54.0 20.3H56.4L56.8 22.0ZM56.0 19.0H54.4L55.2 15.8ZM64.1 19.7V14.1H62.8V19.7C62.8 20.5 62.6 20.8 62.0 20.8C61.4 20.8 61.2 20.5 61.2 19.0H60.0C60.0 20.2 60.0 20.7 60.3 21.2C60.6 21.8 61.2 22.1 62.1 22.1C63.5 22.1 64.1 21.3 64.1 19.7ZM72.0 19.2V14.1H70.6V19.3C70.6 20.2 70.2 20.8 69.4 20.8C68.6 20.8 68.1 20.2 68.1 19.2V14.1H66.8V19.3C66.8 21.1 67.7 22.2 69.4 22.2C71.1 22.2 72.0 21.1 72.0 19.2ZM79.8 22.0V14.1H78.6V19.6L76.0 14.1H74.6V22.0H75.8V16.3L78.5 22.0ZM87.2 15.4V14.1H81.9V15.4H83.9V22.0H85.2V15.4ZM94.9 22.0 92.7 14.1H91.1L88.8 22.0H90.2L90.7 20.3H93.1L93.5 22.0ZM92.7 19.0H91.0L91.9 15.8ZM103.3 22.0V14.1H101.4L100.2 20.3L99.0 14.1H97.1V22.0H98.3V15.3L99.5 22.0H100.9L102.1 15.3V22.0ZM110.9 22.0V20.6H107.3V18.5H110.4V17.1H107.3V15.4H110.7V14.1H106.0V22.0ZM118.5 22.0V14.1H117.3V19.6L114.7 14.1H113.2V22.0H114.5V16.3L117.2 22.0ZM125.8 15.4V14.1H120.6V15.4H122.5V22.0H123.9V15.4ZM137.3 17.8C137.3 15.4 136.3 14.1 134.6 14.1H131.8V22.0H134.6C136.4 22.0 137.3 20.2 137.3 17.8ZM135.9 17.9C135.9 19.6 135.4 20.6 134.4 20.6H133.1V15.4H134.4C135.5 15.4 135.9 16.3 135.9 17.9ZM144.5 22.0V20.6H140.9V18.5H144.1V17.1H140.9V15.4H144.4V14.1H139.6V22.0Z"/><path d="M69.2 31.0V28.9H62.1V31.0L62.6 31.0C63.6 31.2 64.1 31.3 64.1 31.9C64.1 32.1 64.1 32.4 64.0 32.7L60.9 41.4L57.7 32.7C57.6 32.3 57.5 32.1 57.5 31.9C57.5 31.3 58.0 31.2 59.3 31.0L59.7 31.0V28.9H50.5V31.0L50.8 31.0C52.4 31.2 52.7 31.5 53.3 33.0L58.2 46.0H61.6L66.4 33.4C67.2 31.7 67.6 31.2 68.9 31.0ZM77.3 46.0V43.9L76.6 43.8C75.6 43.5 75.5 43.3 75.5 41.9V33.4H73.9L69.5 34.1V36.2L70.0 36.2C71.1 36.3 71.4 36.7 71.4 38.3V41.9C71.4 43.3 71.3 43.6 70.3 43.8L69.5 43.9V46.0ZM75.9 29.3C75.9 28.0 74.8 26.8 73.5 26.8C72.1 26.8 71.1 27.8 71.1 29.2C71.1 30.5 72.2 31.6 73.6 31.6C74.8 31.6 75.9 30.5 75.9 29.3ZM86.0 46.0V43.9L85.2 43.8C84.3 43.5 84.1 43.3 84.1 41.9V27.9H82.5C80.9 28.5 79.9 28.8 78.2 28.9V31.0L78.6 31.0C80.0 31.2 80.1 31.8 80.1 33.0V41.9C80.1 43.3 79.9 43.6 79.0 43.8L78.2 43.9V46.0ZM101.2 44.9 99.8 43.2C99.3 43.6 99.1 43.6 99.1 43.6C98.7 43.6 98.6 43.0 98.6 42.2V37.3C98.6 34.8 97.2 33.2 93.2 33.2C89.9 33.2 87.6 34.6 87.6 36.6C87.6 37.7 88.4 38.5 89.5 38.5C90.1 38.5 90.7 38.3 91.0 37.8C91.3 37.5 91.4 37.2 91.4 36.6C91.4 35.7 92.4 35.5 93.0 35.5C94.1 35.5 94.6 35.9 94.6 36.8V38.1C93.2 38.2 92.0 38.5 90.9 38.8C88.4 39.5 87.2 40.9 87.2 42.8C87.2 44.8 88.8 46.2 91.1 46.2C92.5 46.2 93.9 45.8 95.1 44.9C95.7 45.7 96.8 46.2 98.0 46.2C99.1 46.2 100.0 45.8 101.2 44.9ZM94.6 42.6C93.9 43.2 93.3 43.5 92.6 43.5C91.9 43.5 91.4 43.0 91.4 42.2C91.4 41.2 92.4 40.5 94.6 40.1ZM112.5 29.6C112.5 28.3 111.2 27.5 109.1 27.5C105.8 27.5 103.4 29.5 103.4 32.3V33.4H101.5V35.5H103.4V41.8C103.4 43.3 103.2 43.5 102.3 43.7L101.6 43.9V46.0H109.5V43.9L108.7 43.7C107.6 43.5 107.4 43.3 107.4 41.8V35.5H109.8V33.4H107.4V31.6C107.4 30.5 107.7 30.1 108.4 30.1C108.6 30.1 108.8 30.2 108.9 30.4C109.5 31.2 109.8 31.4 110.5 31.4C111.6 31.4 112.5 30.6 112.5 29.6ZM125.1 39.8C125.1 35.7 122.3 33.2 118.0 33.2C114.0 33.2 111.2 35.7 111.2 39.5C111.2 43.6 113.9 46.2 118.2 46.2C122.4 46.2 125.1 43.7 125.1 39.8ZM120.5 39.9C120.5 42.4 119.7 43.8 118.2 43.8C116.6 43.8 115.8 42.4 115.8 39.8C115.8 37.1 116.6 35.7 118.2 35.7C119.8 35.7 120.5 37.1 120.5 39.9ZM138.3 41.7C138.3 38.7 135.6 38.2 134.2 37.9L132.3 37.6C130.9 37.3 130.3 37.0 130.3 36.5C130.3 35.9 131.1 35.5 132.1 35.5C133.3 35.5 134.4 36.1 135.3 37.4L137.4 37.1L136.9 33.4H135.3L135.0 34.0C133.7 33.4 133.0 33.2 131.8 33.2C128.9 33.2 126.7 35.0 126.7 37.5C126.7 39.6 128.1 40.9 130.7 41.2L132.3 41.4C133.9 41.6 134.5 42.0 134.5 42.6C134.5 43.2 133.6 43.6 132.3 43.6C131.3 43.6 130.3 43.3 129.6 42.6C129.3 42.4 129.1 42.1 128.4 41.4L126.5 41.8L127.5 46.1H129.2L129.5 45.4C130.7 46.0 131.6 46.2 132.7 46.2C135.8 46.2 138.3 44.2 138.3 41.7ZM152.7 42.4 150.7 41.3C149.8 42.9 148.6 43.8 147.2 43.8C145.4 43.8 144.2 42.1 144.2 39.5C144.2 36.9 145.1 35.5 146.6 35.5C147.3 35.5 148.0 36.0 148.0 36.5V37.2C148.0 38.1 149.0 38.9 150.1 38.9C151.2 38.9 152.1 38.0 152.1 36.9C152.1 34.8 149.7 33.2 146.6 33.2C142.4 33.2 139.7 35.8 139.7 39.7C139.7 43.5 142.5 46.2 146.4 46.2C149.4 46.2 151.7 44.8 152.7 42.4ZM168.2 44.9 166.8 43.2C166.3 43.6 166.1 43.6 166.1 43.6C165.7 43.6 165.6 43.0 165.6 42.2V37.3C165.6 34.8 164.2 33.2 160.2 33.2C156.9 33.2 154.6 34.6 154.6 36.6C154.6 37.7 155.4 38.5 156.5 38.5C157.1 38.5 157.7 38.3 158.0 37.8C158.3 37.5 158.4 37.2 158.4 36.6C158.4 35.7 159.4 35.5 160.0 35.5C161.1 35.5 161.6 35.9 161.6 36.8V38.1C160.2 38.2 159.0 38.5 157.9 38.8C155.4 39.5 154.2 40.9 154.2 42.8C154.2 44.8 155.8 46.2 158.1 46.2C159.5 46.2 160.9 45.8 162.1 44.9C162.7 45.7 163.8 46.2 165.0 46.2C166.1 46.2 167.0 45.8 168.2 44.9ZM161.6 42.6C160.9 43.2 160.3 43.5 159.6 43.5C158.9 43.5 158.4 43.0 158.4 42.2C158.4 41.2 159.4 40.5 161.6 40.1Z"/></g></svg>
